<svg id="图层_1" data-name="图层 1" xmlns="http://www.w3.org/2000/svg" viewBox="0 0 512 512"><defs><style>.cls-1{fill:#fff;}</style></defs><title>android-chrome-512x512</title><path d="M166,509.28v-422a22,22,0,0,0,1-2.75c4.23-20.32,16.29-33.62,36-40.05,2.65-.86,5.37-1.48,8.06-2.2H633a20.21,20.21,0,0,0,2.73,1q29.6,6.07,39.6,34.56c1.09,3.08,1.79,6.31,2.67,9.47v422a21.27,21.27,0,0,0-1,2.74q-6.12,29.55-34.55,39.62c-3.09,1.09-6.32,1.77-9.48,2.64H211a20.27,20.27,0,0,0-2.73-1c-20.18-4.1-33.34-16.1-39.94-35.46C167.37,515.05,166.77,512.13,166,509.28Zm168.41-44.5h175.3V426.91H377.26V132.56H334.41Z" transform="translate(-166 -42.28)"/><path class="cls-1" d="M678,87.28c-.88-3.16-1.58-6.39-2.67-9.47q-10-28.43-39.6-34.56a20.21,20.21,0,0,1-2.73-1h45Z" transform="translate(-166 -42.28)"/><path class="cls-1" d="M166,509.28c.77,2.85,1.37,5.77,2.33,8.56,6.6,19.36,19.76,31.36,39.94,35.46a20.27,20.27,0,0,1,2.73,1H166Z" transform="translate(-166 -42.28)"/><path class="cls-1" d="M211,42.28c-2.69.72-5.41,1.34-8.06,2.2-19.68,6.43-31.74,19.73-36,40.05a22,22,0,0,1-1,2.75v-45Z" transform="translate(-166 -42.28)"/><path class="cls-1" d="M633,554.28c3.16-.87,6.39-1.55,9.48-2.64Q670.88,541.57,677,512a21.27,21.27,0,0,1,1-2.74v45Z" transform="translate(-166 -42.28)"/><path class="cls-1" d="M334.41,464.78V132.56h42.85V426.91H509.71v37.87Z" transform="translate(-166 -42.28)"/></svg>